<mxfile host="app.diagrams.net" modified="2020-04-02T23:44:23.417Z" agent="5.0 (X11; Fedora; Linux x86_64) AppleWebKit/537.36 (KHTML, like Gecko) Chrome/80.0.3987.149 Safari/537.36" etag="Q4mKasyex47jI_LloYwA" version="12.9.6" type="github">
  <diagram name="Page-1" id="e7e014a7-5840-1c2e-5031-d8a46d1fe8dd">
    <mxGraphModel dx="539" dy="498" grid="1" gridSize="10" guides="1" tooltips="1" connect="1" arrows="1" fold="1" page="1" pageScale="1" pageWidth="1169" pageHeight="826" background="#ffffff" math="0" shadow="0">
      <root>
        <mxCell id="0" />
        <mxCell id="1" parent="0" />
        <mxCell id="2" value="Алминистратор" style="swimlane;whiteSpace=wrap" parent="1" vertex="1">
          <mxGeometry x="40" y="40" width="400" height="2470" as="geometry" />
        </mxCell>
        <mxCell id="eBvQgobW3I-P15cPwnFs-46" value="" style="ellipse;shape=startState;fillColor=#000000;strokeColor=#000000;strokeWidth=8;" vertex="1" parent="2">
          <mxGeometry x="184.75" y="40" width="30" height="30" as="geometry" />
        </mxCell>
        <mxCell id="eBvQgobW3I-P15cPwnFs-47" value="" style="edgeStyle=elbowEdgeStyle;elbow=horizontal;verticalAlign=bottom;endArrow=open;endSize=8;strokeColor=#000000;endFill=1;rounded=0;exitX=0.5;exitY=1;exitDx=0;exitDy=0;entryX=0.5;entryY=0;entryDx=0;entryDy=0;" edge="1" parent="2" source="eBvQgobW3I-P15cPwnFs-46" target="eBvQgobW3I-P15cPwnFs-48">
          <mxGeometry x="279.75" y="-72" as="geometry">
            <mxPoint x="294.75" y="-2" as="targetPoint" />
          </mxGeometry>
        </mxCell>
        <mxCell id="eBvQgobW3I-P15cPwnFs-48" value="авторизоваться на сайте" style="rounded=1;whiteSpace=wrap;html=1;fontFamily=Helvetica;fontSize=12;fontColor=#000000;align=center;strokeColor=#000000;fillColor=#ffffff;" vertex="1" parent="2">
          <mxGeometry x="139.75" y="118" width="120" height="40" as="geometry" />
        </mxCell>
        <mxCell id="eBvQgobW3I-P15cPwnFs-54" style="edgeStyle=orthogonalEdgeStyle;rounded=0;orthogonalLoop=1;jettySize=auto;html=1;exitX=0.5;exitY=1;exitDx=0;exitDy=0;entryX=0.5;entryY=0;entryDx=0;entryDy=0;" edge="1" parent="2" source="eBvQgobW3I-P15cPwnFs-49" target="eBvQgobW3I-P15cPwnFs-51">
          <mxGeometry relative="1" as="geometry" />
        </mxCell>
        <mxCell id="eBvQgobW3I-P15cPwnFs-56" style="edgeStyle=orthogonalEdgeStyle;rounded=0;orthogonalLoop=1;jettySize=auto;html=1;exitX=1;exitY=0.5;exitDx=0;exitDy=0;entryX=0.5;entryY=0;entryDx=0;entryDy=0;" edge="1" parent="2" source="eBvQgobW3I-P15cPwnFs-49" target="eBvQgobW3I-P15cPwnFs-53">
          <mxGeometry relative="1" as="geometry" />
        </mxCell>
        <mxCell id="eBvQgobW3I-P15cPwnFs-57" style="edgeStyle=orthogonalEdgeStyle;rounded=0;orthogonalLoop=1;jettySize=auto;html=1;exitX=0;exitY=0.5;exitDx=0;exitDy=0;entryX=0.5;entryY=0;entryDx=0;entryDy=0;" edge="1" parent="2" source="eBvQgobW3I-P15cPwnFs-49" target="eBvQgobW3I-P15cPwnFs-52">
          <mxGeometry relative="1" as="geometry" />
        </mxCell>
        <mxCell id="eBvQgobW3I-P15cPwnFs-49" value="" style="rhombus;whiteSpace=wrap;html=1;strokeColor=#000000;strokeWidth=1;fillColor=#FFFFFF;" vertex="1" parent="2">
          <mxGeometry x="169.75" y="200" width="60" height="30" as="geometry" />
        </mxCell>
        <mxCell id="eBvQgobW3I-P15cPwnFs-50" value="" style="edgeStyle=orthogonalEdgeStyle;rounded=0;orthogonalLoop=1;jettySize=auto;html=1;strokeColor=#000000;" edge="1" parent="2" source="eBvQgobW3I-P15cPwnFs-48" target="eBvQgobW3I-P15cPwnFs-49">
          <mxGeometry relative="1" as="geometry">
            <mxPoint x="319.7500000000001" y="158" as="sourcePoint" />
            <mxPoint x="319.7500000000001" y="199.9999999999999" as="targetPoint" />
          </mxGeometry>
        </mxCell>
        <mxCell id="eBvQgobW3I-P15cPwnFs-89" value="" style="edgeStyle=orthogonalEdgeStyle;rounded=0;orthogonalLoop=1;jettySize=auto;html=1;entryX=0.049;entryY=0.502;entryDx=0;entryDy=0;entryPerimeter=0;" edge="1" parent="2" source="eBvQgobW3I-P15cPwnFs-51" target="eBvQgobW3I-P15cPwnFs-90">
          <mxGeometry relative="1" as="geometry">
            <mxPoint x="200" y="340" as="targetPoint" />
          </mxGeometry>
        </mxCell>
        <mxCell id="eBvQgobW3I-P15cPwnFs-51" value="добавить товар" style="rounded=1;whiteSpace=wrap;html=1;fontFamily=Helvetica;fontSize=12;fontColor=#000000;align=center;strokeColor=#000000;fillColor=#ffffff;" vertex="1" parent="2">
          <mxGeometry x="160" y="280" width="79.5" height="40" as="geometry" />
        </mxCell>
        <mxCell id="eBvQgobW3I-P15cPwnFs-52" value="добавить категорию" style="rounded=1;whiteSpace=wrap;html=1;fontFamily=Helvetica;fontSize=12;fontColor=#000000;align=center;strokeColor=#000000;fillColor=#ffffff;" vertex="1" parent="2">
          <mxGeometry x="41" y="280" width="79.5" height="40" as="geometry" />
        </mxCell>
        <mxCell id="eBvQgobW3I-P15cPwnFs-59" value="" style="edgeStyle=orthogonalEdgeStyle;rounded=0;orthogonalLoop=1;jettySize=auto;html=1;" edge="1" parent="2" source="eBvQgobW3I-P15cPwnFs-53" target="eBvQgobW3I-P15cPwnFs-58">
          <mxGeometry relative="1" as="geometry" />
        </mxCell>
        <mxCell id="eBvQgobW3I-P15cPwnFs-53" value="решить запрос на возврат товара" style="rounded=1;whiteSpace=wrap;html=1;fontFamily=Helvetica;fontSize=12;fontColor=#000000;align=center;strokeColor=#000000;fillColor=#ffffff;" vertex="1" parent="2">
          <mxGeometry x="280" y="280" width="100" height="40" as="geometry" />
        </mxCell>
        <mxCell id="eBvQgobW3I-P15cPwnFs-58" value="получить список всех вопросов" style="rounded=1;whiteSpace=wrap;html=1;fontFamily=Helvetica;fontSize=12;fontColor=#000000;align=center;strokeColor=#000000;fillColor=#ffffff;" vertex="1" parent="2">
          <mxGeometry x="280" y="360" width="79.5" height="40" as="geometry" />
        </mxCell>
        <mxCell id="eBvQgobW3I-P15cPwnFs-65" value="" style="edgeStyle=orthogonalEdgeStyle;rounded=0;orthogonalLoop=1;jettySize=auto;html=1;" edge="1" parent="2" source="eBvQgobW3I-P15cPwnFs-62" target="eBvQgobW3I-P15cPwnFs-64">
          <mxGeometry relative="1" as="geometry" />
        </mxCell>
        <mxCell id="eBvQgobW3I-P15cPwnFs-62" value="выбрать запрос" style="rounded=1;whiteSpace=wrap;html=1;fontFamily=Helvetica;fontSize=12;fontColor=#000000;align=center;strokeColor=#000000;fillColor=#ffffff;" vertex="1" parent="2">
          <mxGeometry x="280" y="440" width="79.5" height="40" as="geometry" />
        </mxCell>
        <mxCell id="eBvQgobW3I-P15cPwnFs-69" value="" style="edgeStyle=orthogonalEdgeStyle;rounded=0;orthogonalLoop=1;jettySize=auto;html=1;" edge="1" parent="2" source="eBvQgobW3I-P15cPwnFs-64" target="eBvQgobW3I-P15cPwnFs-68">
          <mxGeometry relative="1" as="geometry" />
        </mxCell>
        <mxCell id="eBvQgobW3I-P15cPwnFs-64" value="изучить запрос" style="rounded=1;whiteSpace=wrap;html=1;fontFamily=Helvetica;fontSize=12;fontColor=#000000;align=center;strokeColor=#000000;fillColor=#ffffff;" vertex="1" parent="2">
          <mxGeometry x="280" y="520" width="79.5" height="40" as="geometry" />
        </mxCell>
        <mxCell id="eBvQgobW3I-P15cPwnFs-68" value="отправить решение на сервер" style="rounded=1;whiteSpace=wrap;html=1;fontFamily=Helvetica;fontSize=12;fontColor=#000000;align=center;strokeColor=#000000;fillColor=#ffffff;" vertex="1" parent="2">
          <mxGeometry x="280" y="600" width="79.5" height="40" as="geometry" />
        </mxCell>
        <mxCell id="eBvQgobW3I-P15cPwnFs-87" style="edgeStyle=orthogonalEdgeStyle;rounded=0;orthogonalLoop=1;jettySize=auto;html=1;exitX=0.25;exitY=0;exitDx=0;exitDy=0;entryX=1;entryY=1;entryDx=0;entryDy=0;" edge="1" parent="2" source="eBvQgobW3I-P15cPwnFs-86" target="eBvQgobW3I-P15cPwnFs-49">
          <mxGeometry relative="1" as="geometry">
            <Array as="points">
              <mxPoint x="305" y="1020" />
              <mxPoint x="270" y="1020" />
              <mxPoint x="270" y="222" />
            </Array>
          </mxGeometry>
        </mxCell>
        <mxCell id="eBvQgobW3I-P15cPwnFs-86" value="получить положительный ответ от сервера" style="rounded=1;whiteSpace=wrap;html=1;fontFamily=Helvetica;fontSize=12;fontColor=#000000;align=center;strokeColor=#000000;fillColor=#ffffff;" vertex="1" parent="2">
          <mxGeometry x="280" y="1040" width="100" height="40" as="geometry" />
        </mxCell>
        <mxCell id="eBvQgobW3I-P15cPwnFs-90" value="" style="html=1;points=[];perimeter=orthogonalPerimeter;rotation=90;fillColor=#000000;" vertex="1" parent="2">
          <mxGeometry x="165" y="330" width="10" height="140" as="geometry" />
        </mxCell>
        <mxCell id="eBvQgobW3I-P15cPwnFs-91" value="" style="edgeStyle=orthogonalEdgeStyle;rounded=0;orthogonalLoop=1;jettySize=auto;html=1;" edge="1" parent="2" target="eBvQgobW3I-P15cPwnFs-92">
          <mxGeometry relative="1" as="geometry">
            <mxPoint x="220" y="400" as="sourcePoint" />
          </mxGeometry>
        </mxCell>
        <mxCell id="eBvQgobW3I-P15cPwnFs-96" style="edgeStyle=orthogonalEdgeStyle;rounded=0;orthogonalLoop=1;jettySize=auto;html=1;exitX=0.5;exitY=1;exitDx=0;exitDy=0;entryX=0.12;entryY=0.139;entryDx=0;entryDy=0;entryPerimeter=0;" edge="1" parent="2" source="eBvQgobW3I-P15cPwnFs-92" target="eBvQgobW3I-P15cPwnFs-95">
          <mxGeometry relative="1" as="geometry" />
        </mxCell>
        <mxCell id="eBvQgobW3I-P15cPwnFs-92" value="указать название товара" style="rounded=1;whiteSpace=wrap;html=1;fontFamily=Helvetica;fontSize=12;fontColor=#000000;align=center;strokeColor=#000000;fillColor=#ffffff;" vertex="1" parent="2">
          <mxGeometry x="180.25" y="440" width="79.5" height="40" as="geometry" />
        </mxCell>
        <mxCell id="eBvQgobW3I-P15cPwnFs-93" value="" style="edgeStyle=orthogonalEdgeStyle;rounded=0;orthogonalLoop=1;jettySize=auto;html=1;" edge="1" parent="2" target="eBvQgobW3I-P15cPwnFs-94">
          <mxGeometry relative="1" as="geometry">
            <mxPoint x="120" y="400" as="sourcePoint" />
          </mxGeometry>
        </mxCell>
        <mxCell id="eBvQgobW3I-P15cPwnFs-97" style="edgeStyle=orthogonalEdgeStyle;rounded=0;orthogonalLoop=1;jettySize=auto;html=1;exitX=0.5;exitY=1;exitDx=0;exitDy=0;entryX=0.08;entryY=0.859;entryDx=0;entryDy=0;entryPerimeter=0;" edge="1" parent="2" source="eBvQgobW3I-P15cPwnFs-94" target="eBvQgobW3I-P15cPwnFs-95">
          <mxGeometry relative="1" as="geometry" />
        </mxCell>
        <mxCell id="eBvQgobW3I-P15cPwnFs-94" value="указать характеристики товара" style="rounded=1;whiteSpace=wrap;html=1;fontFamily=Helvetica;fontSize=12;fontColor=#000000;align=center;strokeColor=#000000;fillColor=#ffffff;" vertex="1" parent="2">
          <mxGeometry x="75" y="440" width="90" height="40" as="geometry" />
        </mxCell>
        <mxCell id="eBvQgobW3I-P15cPwnFs-99" value="" style="edgeStyle=orthogonalEdgeStyle;rounded=0;orthogonalLoop=1;jettySize=auto;html=1;entryX=0.5;entryY=0;entryDx=0;entryDy=0;" edge="1" parent="2" source="eBvQgobW3I-P15cPwnFs-95" target="eBvQgobW3I-P15cPwnFs-100">
          <mxGeometry relative="1" as="geometry">
            <mxPoint x="170" y="695" as="targetPoint" />
          </mxGeometry>
        </mxCell>
        <mxCell id="eBvQgobW3I-P15cPwnFs-95" value="" style="html=1;points=[];perimeter=orthogonalPerimeter;rotation=90;fillColor=#000000;" vertex="1" parent="2">
          <mxGeometry x="165" y="450" width="10" height="140" as="geometry" />
        </mxCell>
        <mxCell id="eBvQgobW3I-P15cPwnFs-100" value="отправить характеристики нового товара на сервер" style="rounded=1;whiteSpace=wrap;html=1;fontFamily=Helvetica;fontSize=12;fontColor=#000000;align=center;strokeColor=#000000;fillColor=#ffffff;" vertex="1" parent="2">
          <mxGeometry x="100" y="1120" width="139.5" height="40" as="geometry" />
        </mxCell>
        <mxCell id="eBvQgobW3I-P15cPwnFs-103" value="получить положительный ответ от сервера" style="rounded=1;whiteSpace=wrap;html=1;fontFamily=Helvetica;fontSize=12;fontColor=#000000;align=center;strokeColor=#000000;fillColor=#ffffff;" vertex="1" parent="2">
          <mxGeometry x="110" y="1199" width="120" height="40" as="geometry" />
        </mxCell>
        <mxCell id="eBvQgobW3I-P15cPwnFs-107" value="" style="ellipse;html=1;shape=endState;fillColor=#000000;strokeColor=#000000;" vertex="1" parent="2">
          <mxGeometry x="45" y="150" width="30" height="30" as="geometry" />
        </mxCell>
        <mxCell id="eBvQgobW3I-P15cPwnFs-106" style="edgeStyle=orthogonalEdgeStyle;rounded=0;orthogonalLoop=1;jettySize=auto;html=1;exitX=0;exitY=0;exitDx=0;exitDy=0;entryX=0.5;entryY=1;entryDx=0;entryDy=0;" edge="1" parent="2" source="eBvQgobW3I-P15cPwnFs-49" target="eBvQgobW3I-P15cPwnFs-107">
          <mxGeometry relative="1" as="geometry">
            <mxPoint x="60" y="180" as="targetPoint" />
          </mxGeometry>
        </mxCell>
        <mxCell id="3" value="Сервер" style="swimlane;whiteSpace=wrap" parent="1" vertex="1">
          <mxGeometry x="440" y="40" width="240" height="2470" as="geometry" />
        </mxCell>
        <mxCell id="eBvQgobW3I-P15cPwnFs-60" value="получить список всех вопросов" style="rounded=1;whiteSpace=wrap;html=1;fontFamily=Helvetica;fontSize=12;fontColor=#000000;align=center;strokeColor=#000000;fillColor=#ffffff;" vertex="1" parent="3">
          <mxGeometry x="40" y="360" width="120" height="40" as="geometry" />
        </mxCell>
        <mxCell id="eBvQgobW3I-P15cPwnFs-73" value="" style="edgeStyle=orthogonalEdgeStyle;rounded=0;orthogonalLoop=1;jettySize=auto;html=1;" edge="1" parent="3" source="eBvQgobW3I-P15cPwnFs-70" target="eBvQgobW3I-P15cPwnFs-72">
          <mxGeometry relative="1" as="geometry" />
        </mxCell>
        <mxCell id="eBvQgobW3I-P15cPwnFs-70" value="сохранить решение" style="rounded=1;whiteSpace=wrap;html=1;fontFamily=Helvetica;fontSize=12;fontColor=#000000;align=center;strokeColor=#000000;fillColor=#ffffff;" vertex="1" parent="3">
          <mxGeometry x="40" y="600" width="120.5" height="40" as="geometry" />
        </mxCell>
        <mxCell id="eBvQgobW3I-P15cPwnFs-75" value="" style="edgeStyle=orthogonalEdgeStyle;rounded=0;orthogonalLoop=1;jettySize=auto;html=1;entryX=0.5;entryY=0;entryDx=0;entryDy=0;" edge="1" parent="3" source="eBvQgobW3I-P15cPwnFs-72" target="eBvQgobW3I-P15cPwnFs-76">
          <mxGeometry relative="1" as="geometry">
            <mxPoint x="99.75" y="800" as="targetPoint" />
          </mxGeometry>
        </mxCell>
        <mxCell id="eBvQgobW3I-P15cPwnFs-72" value="отправить пользователю уведомление" style="rounded=1;whiteSpace=wrap;html=1;fontFamily=Helvetica;fontSize=12;fontColor=#000000;align=center;strokeColor=#000000;fillColor=#ffffff;" vertex="1" parent="3">
          <mxGeometry x="39.5" y="680" width="120.5" height="40" as="geometry" />
        </mxCell>
        <mxCell id="eBvQgobW3I-P15cPwnFs-76" value="" style="rhombus;whiteSpace=wrap;html=1;strokeColor=#000000;strokeWidth=1;fillColor=#FFFFFF;" vertex="1" parent="3">
          <mxGeometry x="69.75" y="800" width="60" height="30" as="geometry" />
        </mxCell>
        <mxCell id="eBvQgobW3I-P15cPwnFs-83" style="edgeStyle=orthogonalEdgeStyle;rounded=0;orthogonalLoop=1;jettySize=auto;html=1;exitX=0.5;exitY=1;exitDx=0;exitDy=0;entryX=0.5;entryY=0;entryDx=0;entryDy=0;" edge="1" parent="3" source="eBvQgobW3I-P15cPwnFs-78" target="eBvQgobW3I-P15cPwnFs-81">
          <mxGeometry relative="1" as="geometry" />
        </mxCell>
        <mxCell id="eBvQgobW3I-P15cPwnFs-78" value="отменить оплачениый счёт" style="rounded=1;whiteSpace=wrap;html=1;fontFamily=Helvetica;fontSize=12;fontColor=#000000;align=center;strokeColor=#000000;fillColor=#ffffff;" vertex="1" parent="3">
          <mxGeometry x="39.5" y="880" width="120.5" height="40" as="geometry" />
        </mxCell>
        <mxCell id="eBvQgobW3I-P15cPwnFs-77" style="edgeStyle=orthogonalEdgeStyle;rounded=0;orthogonalLoop=1;jettySize=auto;html=1;exitX=0.5;exitY=1;exitDx=0;exitDy=0;entryX=0.5;entryY=0;entryDx=0;entryDy=0;" edge="1" parent="3" source="eBvQgobW3I-P15cPwnFs-76" target="eBvQgobW3I-P15cPwnFs-78">
          <mxGeometry relative="1" as="geometry">
            <mxPoint x="100" y="860" as="targetPoint" />
          </mxGeometry>
        </mxCell>
        <mxCell id="eBvQgobW3I-P15cPwnFs-79" value="[ решено вернуть&lt;br&gt;деньги за товар ]" style="text;html=1;align=center;verticalAlign=middle;resizable=0;points=[];autosize=1;" vertex="1" parent="3">
          <mxGeometry x="100" y="830" width="110" height="30" as="geometry" />
        </mxCell>
        <mxCell id="eBvQgobW3I-P15cPwnFs-81" value="" style="rhombus;whiteSpace=wrap;html=1;strokeColor=#000000;strokeWidth=1;fillColor=#FFFFFF;" vertex="1" parent="3">
          <mxGeometry x="69.75" y="960" width="60" height="30" as="geometry" />
        </mxCell>
        <mxCell id="eBvQgobW3I-P15cPwnFs-82" style="edgeStyle=orthogonalEdgeStyle;rounded=0;orthogonalLoop=1;jettySize=auto;html=1;exitX=0.5;exitY=1;exitDx=0;exitDy=0;" edge="1" parent="3" source="eBvQgobW3I-P15cPwnFs-81" target="eBvQgobW3I-P15cPwnFs-81">
          <mxGeometry relative="1" as="geometry" />
        </mxCell>
        <mxCell id="eBvQgobW3I-P15cPwnFs-80" style="edgeStyle=orthogonalEdgeStyle;rounded=0;orthogonalLoop=1;jettySize=auto;html=1;exitX=0;exitY=0.5;exitDx=0;exitDy=0;entryX=0;entryY=0.5;entryDx=0;entryDy=0;" edge="1" parent="3" source="eBvQgobW3I-P15cPwnFs-76" target="eBvQgobW3I-P15cPwnFs-81">
          <mxGeometry relative="1" as="geometry">
            <mxPoint x="30" y="960" as="targetPoint" />
            <Array as="points">
              <mxPoint x="20" y="815" />
              <mxPoint x="20" y="975" />
            </Array>
          </mxGeometry>
        </mxCell>
        <mxCell id="eBvQgobW3I-P15cPwnFs-84" value="[ решено не&lt;br&gt;возвращать&lt;br&gt;деньги за&lt;br&gt;товар ]" style="text;html=1;align=center;verticalAlign=middle;resizable=0;points=[];autosize=1;" vertex="1" parent="3">
          <mxGeometry x="8" y="750" width="80" height="60" as="geometry" />
        </mxCell>
        <mxCell id="eBvQgobW3I-P15cPwnFs-101" value="добавить новый товар в базу данных" style="rounded=1;whiteSpace=wrap;html=1;fontFamily=Helvetica;fontSize=12;fontColor=#000000;align=center;strokeColor=#000000;fillColor=#ffffff;" vertex="1" parent="3">
          <mxGeometry x="40" y="1120" width="120" height="40" as="geometry" />
        </mxCell>
        <mxCell id="eBvQgobW3I-P15cPwnFs-61" value="" style="edgeStyle=orthogonalEdgeStyle;rounded=0;orthogonalLoop=1;jettySize=auto;html=1;" edge="1" parent="1" source="eBvQgobW3I-P15cPwnFs-58" target="eBvQgobW3I-P15cPwnFs-60">
          <mxGeometry relative="1" as="geometry" />
        </mxCell>
        <mxCell id="eBvQgobW3I-P15cPwnFs-63" value="" style="edgeStyle=orthogonalEdgeStyle;rounded=0;orthogonalLoop=1;jettySize=auto;html=1;" edge="1" parent="1" source="eBvQgobW3I-P15cPwnFs-60" target="eBvQgobW3I-P15cPwnFs-62">
          <mxGeometry relative="1" as="geometry">
            <Array as="points">
              <mxPoint x="540" y="460" />
              <mxPoint x="360" y="460" />
            </Array>
          </mxGeometry>
        </mxCell>
        <mxCell id="eBvQgobW3I-P15cPwnFs-71" value="" style="edgeStyle=orthogonalEdgeStyle;rounded=0;orthogonalLoop=1;jettySize=auto;html=1;" edge="1" parent="1" source="eBvQgobW3I-P15cPwnFs-68" target="eBvQgobW3I-P15cPwnFs-70">
          <mxGeometry relative="1" as="geometry" />
        </mxCell>
        <mxCell id="eBvQgobW3I-P15cPwnFs-85" style="edgeStyle=orthogonalEdgeStyle;rounded=0;orthogonalLoop=1;jettySize=auto;html=1;exitX=0.5;exitY=1;exitDx=0;exitDy=0;entryX=0.5;entryY=0;entryDx=0;entryDy=0;" edge="1" parent="1" source="eBvQgobW3I-P15cPwnFs-81" target="eBvQgobW3I-P15cPwnFs-86">
          <mxGeometry relative="1" as="geometry">
            <mxPoint x="340" y="1080" as="targetPoint" />
            <Array as="points">
              <mxPoint x="540" y="1060" />
              <mxPoint x="370" y="1060" />
            </Array>
          </mxGeometry>
        </mxCell>
        <mxCell id="eBvQgobW3I-P15cPwnFs-102" value="" style="edgeStyle=orthogonalEdgeStyle;rounded=0;orthogonalLoop=1;jettySize=auto;html=1;" edge="1" parent="1" source="eBvQgobW3I-P15cPwnFs-100" target="eBvQgobW3I-P15cPwnFs-101">
          <mxGeometry relative="1" as="geometry" />
        </mxCell>
        <mxCell id="eBvQgobW3I-P15cPwnFs-104" value="" style="edgeStyle=orthogonalEdgeStyle;rounded=0;orthogonalLoop=1;jettySize=auto;html=1;" edge="1" parent="1" source="eBvQgobW3I-P15cPwnFs-101" target="eBvQgobW3I-P15cPwnFs-103">
          <mxGeometry relative="1" as="geometry">
            <Array as="points">
              <mxPoint x="540" y="1220" />
              <mxPoint x="210" y="1220" />
            </Array>
          </mxGeometry>
        </mxCell>
      </root>
    </mxGraphModel>
  </diagram>
</mxfile>
